<mxfile host="Electron" modified="2023-05-09T11:36:57.567Z" agent="Mozilla/5.0 (Windows NT 10.0; Win64; x64) AppleWebKit/537.36 (KHTML, like Gecko) draw.io/21.1.2 Chrome/106.0.5249.199 Electron/21.4.3 Safari/537.36" etag="BaOoTrGMJF_73b0S4_3k" version="21.1.2" type="device">
  <diagram name="Page-1" id="RB5IfIWQK4PsqWhqOg7Y">
    <mxGraphModel dx="1688" dy="1010" grid="1" gridSize="10" guides="1" tooltips="1" connect="1" arrows="1" fold="1" page="1" pageScale="1" pageWidth="827" pageHeight="1169" math="0" shadow="0">
      <root>
        <mxCell id="0" />
        <mxCell id="1" parent="0" />
        <mxCell id="huOHp9QLIRPMI5IgCvec-2" value="Accueil" style="rounded=1;whiteSpace=wrap;html=1;" vertex="1" parent="1">
          <mxGeometry x="800" y="40" width="160" height="80" as="geometry" />
        </mxCell>
        <mxCell id="huOHp9QLIRPMI5IgCvec-3" value="A propos" style="rounded=1;whiteSpace=wrap;html=1;" vertex="1" parent="1">
          <mxGeometry x="1520" y="200" width="160" height="80" as="geometry" />
        </mxCell>
        <mxCell id="huOHp9QLIRPMI5IgCvec-4" value="Images" style="rounded=1;whiteSpace=wrap;html=1;" vertex="1" parent="1">
          <mxGeometry x="80" y="200" width="160" height="80" as="geometry" />
        </mxCell>
        <mxCell id="huOHp9QLIRPMI5IgCvec-5" value="Listings" style="rounded=1;whiteSpace=wrap;html=1;" vertex="1" parent="1">
          <mxGeometry x="800" y="200" width="160" height="80" as="geometry" />
        </mxCell>
        <mxCell id="huOHp9QLIRPMI5IgCvec-6" value="Formulaires" style="rounded=1;whiteSpace=wrap;html=1;" vertex="1" parent="1">
          <mxGeometry x="1040" y="200" width="160" height="80" as="geometry" />
        </mxCell>
        <mxCell id="huOHp9QLIRPMI5IgCvec-7" value="Contact" style="rounded=1;whiteSpace=wrap;html=1;" vertex="1" parent="1">
          <mxGeometry x="1280" y="200" width="160" height="80" as="geometry" />
        </mxCell>
        <mxCell id="huOHp9QLIRPMI5IgCvec-8" value="Galerie" style="rounded=1;whiteSpace=wrap;html=1;" vertex="1" parent="1">
          <mxGeometry x="560" y="200" width="160" height="80" as="geometry" />
        </mxCell>
        <mxCell id="huOHp9QLIRPMI5IgCvec-9" value="Galeries et tableaux" style="rounded=1;whiteSpace=wrap;html=1;" vertex="1" parent="1">
          <mxGeometry x="320" y="200" width="160" height="80" as="geometry" />
        </mxCell>
        <mxCell id="huOHp9QLIRPMI5IgCvec-11" value="" style="endArrow=none;html=1;rounded=0;entryX=0.5;entryY=1;entryDx=0;entryDy=0;" edge="1" parent="1" target="huOHp9QLIRPMI5IgCvec-2">
          <mxGeometry width="50" height="50" relative="1" as="geometry">
            <mxPoint x="880" y="160" as="sourcePoint" />
            <mxPoint x="830" y="170" as="targetPoint" />
          </mxGeometry>
        </mxCell>
        <mxCell id="huOHp9QLIRPMI5IgCvec-12" value="" style="endArrow=none;html=1;rounded=0;" edge="1" parent="1">
          <mxGeometry width="50" height="50" relative="1" as="geometry">
            <mxPoint x="160" y="160" as="sourcePoint" />
            <mxPoint x="880" y="160" as="targetPoint" />
          </mxGeometry>
        </mxCell>
        <mxCell id="huOHp9QLIRPMI5IgCvec-13" value="" style="endArrow=none;html=1;rounded=0;exitX=0.5;exitY=0;exitDx=0;exitDy=0;" edge="1" parent="1" source="huOHp9QLIRPMI5IgCvec-4">
          <mxGeometry width="50" height="50" relative="1" as="geometry">
            <mxPoint x="780" y="220" as="sourcePoint" />
            <mxPoint x="160" y="160" as="targetPoint" />
          </mxGeometry>
        </mxCell>
        <mxCell id="huOHp9QLIRPMI5IgCvec-14" value="" style="endArrow=none;html=1;rounded=0;exitX=0.5;exitY=0;exitDx=0;exitDy=0;" edge="1" parent="1" source="huOHp9QLIRPMI5IgCvec-9">
          <mxGeometry width="50" height="50" relative="1" as="geometry">
            <mxPoint x="780" y="220" as="sourcePoint" />
            <mxPoint x="400" y="160" as="targetPoint" />
          </mxGeometry>
        </mxCell>
        <mxCell id="huOHp9QLIRPMI5IgCvec-15" value="" style="endArrow=none;html=1;rounded=0;exitX=0.5;exitY=0;exitDx=0;exitDy=0;" edge="1" parent="1" source="huOHp9QLIRPMI5IgCvec-8">
          <mxGeometry width="50" height="50" relative="1" as="geometry">
            <mxPoint x="780" y="220" as="sourcePoint" />
            <mxPoint x="640" y="160" as="targetPoint" />
          </mxGeometry>
        </mxCell>
        <mxCell id="huOHp9QLIRPMI5IgCvec-19" value="" style="rounded=1;whiteSpace=wrap;html=1;" vertex="1" parent="1">
          <mxGeometry x="560" y="360" width="160" height="80" as="geometry" />
        </mxCell>
        <mxCell id="huOHp9QLIRPMI5IgCvec-20" value="" style="endArrow=none;html=1;rounded=0;exitX=0.5;exitY=1;exitDx=0;exitDy=0;entryX=0.5;entryY=0;entryDx=0;entryDy=0;" edge="1" parent="1" source="huOHp9QLIRPMI5IgCvec-8" target="huOHp9QLIRPMI5IgCvec-19">
          <mxGeometry width="50" height="50" relative="1" as="geometry">
            <mxPoint x="780" y="220" as="sourcePoint" />
            <mxPoint x="830" y="170" as="targetPoint" />
          </mxGeometry>
        </mxCell>
        <mxCell id="huOHp9QLIRPMI5IgCvec-21" value="" style="rounded=1;whiteSpace=wrap;html=1;" vertex="1" parent="1">
          <mxGeometry x="800" y="360" width="160" height="80" as="geometry" />
        </mxCell>
        <mxCell id="huOHp9QLIRPMI5IgCvec-22" value="" style="rounded=1;whiteSpace=wrap;html=1;" vertex="1" parent="1">
          <mxGeometry x="320" y="360" width="160" height="80" as="geometry" />
        </mxCell>
        <mxCell id="huOHp9QLIRPMI5IgCvec-23" value="" style="endArrow=none;html=1;rounded=0;entryX=0.5;entryY=0;entryDx=0;entryDy=0;exitX=0.5;exitY=0;exitDx=0;exitDy=0;" edge="1" parent="1" source="huOHp9QLIRPMI5IgCvec-22" target="huOHp9QLIRPMI5IgCvec-21">
          <mxGeometry width="50" height="50" relative="1" as="geometry">
            <mxPoint x="780" y="220" as="sourcePoint" />
            <mxPoint x="830" y="170" as="targetPoint" />
            <Array as="points">
              <mxPoint x="400" y="320" />
              <mxPoint x="880" y="320" />
            </Array>
          </mxGeometry>
        </mxCell>
        <mxCell id="huOHp9QLIRPMI5IgCvec-24" value="" style="endArrow=none;html=1;rounded=0;entryX=0.5;entryY=0;entryDx=0;entryDy=0;" edge="1" parent="1" target="huOHp9QLIRPMI5IgCvec-3">
          <mxGeometry width="50" height="50" relative="1" as="geometry">
            <mxPoint x="880" y="160" as="sourcePoint" />
            <mxPoint x="830" y="170" as="targetPoint" />
            <Array as="points">
              <mxPoint x="1600" y="160" />
            </Array>
          </mxGeometry>
        </mxCell>
        <mxCell id="huOHp9QLIRPMI5IgCvec-25" value="" style="whiteSpace=wrap;html=1;aspect=fixed;dashed=1;strokeWidth=1;fillColor=none;" vertex="1" parent="1">
          <mxGeometry x="1460" y="150" width="270" height="270" as="geometry" />
        </mxCell>
        <mxCell id="huOHp9QLIRPMI5IgCvec-26" value="Zone réservée" style="text;html=1;strokeColor=none;fillColor=none;align=center;verticalAlign=middle;whiteSpace=wrap;rounded=0;" vertex="1" parent="1">
          <mxGeometry x="1535" y="280" width="140" height="60" as="geometry" />
        </mxCell>
      </root>
    </mxGraphModel>
  </diagram>
</mxfile>
